<svg xmlns="http://www.w3.org/2000/svg" xmlns:xlink="http://www.w3.org/1999/xlink" version="1.1" x="0px" y="0px" viewBox="0 0 100 125" style="enable-background:new 0 0 100 100;" xml:space="preserve"><g><path d="M5.62,26.954v46.092C2.031,66.148,0,58.312,0,50S2.031,33.851,5.62,26.954z M100,50c0,27.614-22.387,50-50,50   C33,100,17.983,91.513,8.949,78.547h38.983V21.453H8.949C17.982,8.487,32.999,0,50,0c17,0,32.017,8.487,41.05,21.453H52.068v57.094   h22.798V59.032h19.515V26.954C97.969,33.851,100,41.688,100,50z M94.381,62.936H78.77v15.611L94.381,62.936z"/></g><text x="0" y="115" fill="#000000" font-size="5px" font-weight="bold" font-family="'Helvetica Neue', Helvetica, Arial-Unicode, Arial, Sans-serif">Created by b farias</text><text x="0" y="120" fill="#000000" font-size="5px" font-weight="bold" font-family="'Helvetica Neue', Helvetica, Arial-Unicode, Arial, Sans-serif">from the Noun Project</text></svg>